<!DOCTYPE svg PUBLIC "-//W3C//DTD SVG 1.1//EN" "http://www.w3.org/Graphics/SVG/1.1/DTD/svg11.dtd">
<!-- Uploaded to: SVG Repo, www.svgrepo.com, Transformed by: SVG Repo Mixer Tools -->
<svg fill="#c9caca" width="800px" height="800px" viewBox="0 0 64 64" xmlns="http://www.w3.org/2000/svg">
<g id="SVGRepo_bgCarrier" stroke-width="0"/>
<g id="SVGRepo_tracerCarrier" stroke-linecap="round" stroke-linejoin="round"/>
<g id="SVGRepo_iconCarrier"> <title/> <g data-name="Layer 46" id="Layer_46"> <path d="M58,6H6A3,3,0,0,0,3,9V44.87A3.08,3.08,0,0,0,6,48H25v4H23a3,3,0,0,0-3,3v3H44V55a3,3,0,0,0-3-3H39V48H58a3.08,3.08,0,0,0,3-3.13V9A3,3,0,0,0,58,6ZM5,9A1,1,0,0,1,6,8H58a1,1,0,0,1,1,1V35a1,1,0,0,1-1,1H6a1,1,0,0,1-1-1V9ZM41,54a1,1,0,0,1,1,1v1H22V55a1,1,0,0,1,1-1H41Zm-4-2H27V48H37Zm21-6H6a1.08,1.08,0,0,1-1-1.13v-7A3,3,0,0,0,6,38H58a3,3,0,0,0,1-.18v7A1.08,1.08,0,0,1,58,46Z"/> <path d="M10,34H54a3,3,0,0,0,3-3V13a3,3,0,0,0-3-3H10a3,3,0,0,0-3,3V31A3,3,0,0,0,10,34ZM9,13a1,1,0,0,1,1-1H54a1,1,0,0,1,1,1V31a1,1,0,0,1-1,1H10a1,1,0,0,1-1-1Z"/> <path d="M17,19H47a1,1,0,0,0,0-2H17a1,1,0,0,0,0,2Z"/> <path d="M17,23H47a1,1,0,0,0,0-2H17a1,1,0,0,0,0,2Z"/> <path d="M17,27H47a1,1,0,0,0,0-2H17a1,1,0,0,0,0,2Z"/> <path d="M34,40H30a2,2,0,0,0,0,4h4a2,2,0,0,0,0-4Z"/> </g> </g>
</svg>