<!DOCTYPE svg PUBLIC "-//W3C//DTD SVG 1.1//EN" "http://www.w3.org/Graphics/SVG/1.1/DTD/svg11.dtd">
<!-- Uploaded to: SVG Repo, www.svgrepo.com, Transformed by: SVG Repo Mixer Tools -->
<svg fill="#c9caca" version="1.1" id="Capa_1" xmlns="http://www.w3.org/2000/svg" xmlns:xlink="http://www.w3.org/1999/xlink" width="800px" height="800px" viewBox="0 0 67.199 67.199" xml:space="preserve" stroke="#c9caca">
<g id="SVGRepo_bgCarrier" stroke-width="0"/>
<g id="SVGRepo_tracerCarrier" stroke-linecap="round" stroke-linejoin="round"/>
<g id="SVGRepo_iconCarrier"> <g> <g> <g> <path d="M42.784,17.697c1.567,0.896,3.137,1.793,4.479,2.912c-0.449-2.688-1.121-4.929-2.017-7.168 c-2.24,0.447-4.705,0.895-7.168,1.567C39.646,15.906,41.216,16.801,42.784,17.697z"/> <path d="M10.304,33.6c1.344,1.792,3.136,3.584,4.928,5.375c-0.224-1.791-0.224-3.584-0.224-5.375c0-1.792,0-3.584,0.224-5.376 C13.439,30.016,11.872,31.808,10.304,33.6z"/> <path d="M48.832,13.217c1.119,3.136,2.016,6.495,2.688,10.304c2.912,2.465,5.602,4.928,7.617,7.393 c3.359-5.151,4.256-9.855,2.238-13.217c-1.791-2.912-5.602-4.479-11.199-4.479C49.729,12.994,49.279,12.994,48.832,13.217z"/> <path d="M56.896,33.6c-1.345-1.792-3.137-3.584-4.929-5.376c0.224,1.792,0.224,3.584,0.224,5.376c0,1.792,0,3.584-0.224,5.375 C53.76,37.185,55.329,35.392,56.896,33.6z"/> <path d="M33.6,50.399c2.464-1.118,5.152-2.237,7.616-3.808c2.464-1.345,4.929-2.911,6.944-4.704 c0.445-2.688,0.672-5.602,0.672-8.514c0-2.91-0.227-5.6-0.672-8.512c-2.24-1.567-4.48-3.136-6.944-4.703 c-2.464-1.344-4.929-2.688-7.616-3.809c-2.464,1.12-5.15,2.24-7.616,3.809c-2.464,1.345-4.928,2.912-6.942,4.703 c-0.448,2.688-0.672,5.602-0.672,8.512c0,2.912,0.224,5.824,0.672,8.514c2.24,1.566,4.479,3.137,6.942,4.704 C28.449,48.162,31.136,49.281,33.6,50.399z"/> <path d="M33.6,53.983c-3.358,1.347-6.942,2.24-10.08,2.912c2.688,5.377,6.272,8.515,10.08,8.515c3.81,0,7.394-3.36,10.08-8.515 C40.543,56.449,36.959,55.33,33.6,53.983z"/> <path d="M18.369,53.983c-1.12-3.135-2.018-6.493-2.688-10.303c-2.912-2.24-5.376-4.93-7.616-7.395 c-3.358,5.152-4.256,9.855-2.238,13.218c1.792,2.911,5.6,4.479,11.198,4.479C17.472,54.208,17.92,54.208,18.369,53.983z"/> <path d="M15.905,23.296c0.672-3.807,1.344-7.168,2.688-10.303c-0.448,0-0.896,0-1.344,0c-5.376,0-9.408,1.566-11.2,4.479 c-1.792,3.137-1.12,7.84,2.24,13.216C10.529,28.224,12.993,25.761,15.905,23.296z"/> <path d="M33.6,13.217c3.359-1.345,6.943-2.24,10.08-2.912c-2.688-5.376-6.271-8.513-10.08-8.513 c-3.808,0-7.392,3.361-10.08,8.513C26.657,10.751,30.241,11.873,33.6,13.217z"/> <path d="M24.416,49.505c-1.568-0.896-3.136-1.793-4.48-2.912c0.448,2.465,1.346,4.928,2.018,6.943 c2.238-0.447,4.704-0.896,7.168-1.567C27.552,51.296,25.983,50.399,24.416,49.505z"/> <path d="M19.936,57.345c-0.896,0-1.792,0.225-2.688,0.225c-3.36,0-6.272-0.448-8.512-1.567 c4.702,5.375,11.198,9.185,18.366,10.526C24.191,64.513,21.728,61.376,19.936,57.345z"/> <path d="M17.023,9.633c0.896,0,1.792,0,2.688,0.224c2.016-4.031,4.256-7.168,6.944-9.184C19.488,2.242,12.992,6.049,8.288,11.201 C10.976,10.304,13.888,9.633,17.023,9.633z"/> <path d="M5.6,34.272c0.226-0.225,0.226-0.446,0.448-0.672c-0.224-0.226-0.224-0.448-0.448-0.672 c-2.24-3.584-3.584-6.944-4.032-9.854C0.672,26.432,0,29.792,0,33.6s0.672,7.168,1.792,10.526 C2.016,41.217,3.359,37.856,5.6,34.272z"/> <path d="M50.176,57.567c-0.896,0-1.792,0-2.688-0.224c-2.018,4.03-4.258,7.169-6.945,9.185 c7.168-1.567,13.664-5.377,18.369-10.526C56.225,56.896,53.312,57.567,50.176,57.567z"/> <path d="M61.15,49.505c2.019-3.359,0.896-8.064-2.463-13.217c-2.239,2.465-4.705,5.152-7.614,7.393 c-0.675,3.81-1.568,7.168-2.688,10.305c0.448,0,0.896,0,1.344,0C55.552,54.208,59.584,52.417,61.15,49.505z"/> <path d="M42.784,49.505c-1.568,0.895-3.138,1.791-4.704,2.464c2.463,0.673,4.928,1.345,7.168,1.567 c0.896-2.018,1.566-4.479,2.016-6.943C45.92,47.712,44.352,48.608,42.784,49.505z"/> <path d="M24.416,17.697c1.566-0.896,3.136-1.791,4.704-2.465c-2.464-0.672-4.93-1.344-7.168-1.566 c-0.896,2.016-1.568,4.479-2.018,6.943C21.281,19.49,22.848,18.593,24.416,17.697z"/> <path d="M47.264,9.857c0.896,0,1.793-0.225,2.688-0.225c3.358,0,6.271,0.447,8.512,1.566C53.762,5.824,47.266,2.015,40.098,0.671 C43.008,2.688,45.473,5.826,47.264,9.857z"/> <path d="M65.409,23.074c-0.226,3.135-1.568,6.494-4.033,9.854c-0.224,0.224-0.224,0.446-0.446,0.672 c2.463,3.584,4.03,7.394,4.479,10.526c1.118-3.357,1.79-6.941,1.79-10.526C67.199,29.792,66.527,26.432,65.409,23.074z"/> </g> </g> </g> </g>
</svg>